HIERARCHY
ROOT Hips
{
	OFFSET 0.000000 100.481300 0.000000
	CHANNELS 6 Xposition Yposition Zposition Xrotation Yrotation Zrotation
	JOINT Spine
	{
		OFFSET -0.279200 12.230698 -2.892100
		CHANNELS 3 Xrotation Yrotation Zrotation
		JOINT Spine1
		{
			OFFSET -0.325700 14.269203 -3.374200
			CHANNELS 3 Xrotation Yrotation Zrotation
			JOINT Spine2
			{
				OFFSET -0.372300 16.307602 -0.352600
				CHANNELS 3 Xrotation Yrotation Zrotation
				JOINT Neck
				{
					OFFSET -0.418800 17.814194 8.416900
					CHANNELS 3 Xrotation Yrotation Zrotation
					JOINT Head
					{
						OFFSET 0.000000 7.031097 3.806800
						CHANNELS 3 Xrotation Yrotation Zrotation
						JOINT HeadTop_End
						{
							OFFSET 0.000000 24.646606 12.978600
							CHANNELS 3 Xrotation Yrotation Zrotation
							End Site
							{
								OFFSET 0.000000 27.854965 0.000000
							}
						}
					}
				}
				JOINT LeftShoulder
				{
					OFFSET 16.952999 14.495407 -7.737500
					CHANNELS 3 Xrotation Yrotation Zrotation
					JOINT LeftArm
					{
						OFFSET 9.308998 -2.777710 0.208600
						CHANNELS 3 Xrotation Yrotation Zrotation
						JOINT LeftForeArm
						{
							OFFSET 29.972298 0.000000 0.000000
							CHANNELS 3 Xrotation Yrotation Zrotation
							JOINT LeftHand
							{
								OFFSET 26.026505 0.000000 0.000000
								CHANNELS 3 Xrotation Yrotation Zrotation
								JOINT LeftHandThumb1
								{
									OFFSET 12.240501 -7.147949 9.207150
									CHANNELS 3 Xrotation Yrotation Zrotation
									JOINT LeftHandThumb2
									{
										OFFSET 4.138618 -2.389435 2.389433
										CHANNELS 3 Xrotation Yrotation Zrotation
										JOINT LeftHandThumb3
										{
											OFFSET 2.726913 -1.574387 1.574386
											CHANNELS 3 Xrotation Yrotation Zrotation
											JOINT LeftHandThumb4
											{
												OFFSET 3.941010 -2.275345 2.275342
												CHANNELS 3 Xrotation Yrotation Zrotation
												End Site
												{
													OFFSET -0.005798 5.087799 0.009903
												}
											}
										}
									}
								}
								JOINT LeftHandIndex1
								{
									OFFSET 24.424698 -1.985611 5.953459
									CHANNELS 3 Xrotation Yrotation Zrotation
									JOINT LeftHandIndex2
									{
										OFFSET 6.426697 0.000000 0.000000
										CHANNELS 3 Xrotation Yrotation Zrotation
										JOINT LeftHandIndex3
										{
											OFFSET 5.337898 0.000000 0.000000
											CHANNELS 3 Xrotation Yrotation Zrotation
											JOINT LeftHandIndex4
											{
												OFFSET 4.409401 0.000000 0.000000
												CHANNELS 3 Xrotation Yrotation Zrotation
												End Site
												{
													OFFSET 0.000000 4.409363 0.014373
												}
											}
										}
									}
								}
								JOINT LeftHandMiddle1
								{
									OFFSET 23.810104 0.000000 0.000000
									CHANNELS 3 Xrotation Yrotation Zrotation
									JOINT LeftHandMiddle2
									{
										OFFSET 7.176498 0.000000 0.000000
										CHANNELS 3 Xrotation Yrotation Zrotation
										JOINT LeftHandMiddle3
										{
											OFFSET 6.774902 0.000000 0.000000
											CHANNELS 3 Xrotation Yrotation Zrotation
											JOINT LeftHandMiddle4
											{
												OFFSET 5.403328 0.000000 0.000000
												CHANNELS 3 Xrotation Yrotation Zrotation
												End Site
												{
													OFFSET -0.027702 5.403244 0.017414
												}
											}
										}
									}
								}
								JOINT LeftHandRing1
								{
									OFFSET 22.908401 -0.839279 -6.020567
									CHANNELS 3 Xrotation Yrotation Zrotation
									JOINT LeftHandRing2
									{
										OFFSET 6.337502 0.000000 0.000000
										CHANNELS 3 Xrotation Yrotation Zrotation
										JOINT LeftHandRing3
										{
											OFFSET 5.779297 0.000000 0.000000
											CHANNELS 3 Xrotation Yrotation Zrotation
											JOINT LeftHandRing4
											{
												OFFSET 4.965698 0.000000 0.000000
												CHANNELS 3 Xrotation Yrotation Zrotation
												End Site
												{
													OFFSET 0.000000 4.965668 0.016186
												}
											}
										}
									}
								}
								JOINT LeftHandPinky1
								{
									OFFSET 20.037003 -1.530319 -10.950146
									CHANNELS 3 Xrotation Yrotation Zrotation
									JOINT LeftHandPinky2
									{
										OFFSET 5.254700 0.000000 0.000000
										CHANNELS 3 Xrotation Yrotation Zrotation
										JOINT LeftHandPinky3
										{
											OFFSET 4.810204 0.000000 0.000000
											CHANNELS 3 Xrotation Yrotation Zrotation
											JOINT LeftHandPinky4
											{
												OFFSET 3.647202 0.000000 0.000000
												CHANNELS 3 Xrotation Yrotation Zrotation
												End Site
												{
													OFFSET 0.000000 3.647186 0.011889
												}
											}
										}
									}
								}
							}
						}
					}
				}
				JOINT RightShoulder
				{
					OFFSET -15.141001 14.495407 -7.737500
					CHANNELS 3 Xrotation Yrotation Zrotation
					JOINT RightArm
					{
						OFFSET -9.308998 -2.777710 0.208500
						CHANNELS 3 Xrotation Yrotation Zrotation
						JOINT RightForeArm
						{
							OFFSET -29.972300 0.000000 0.000000
							CHANNELS 3 Xrotation Yrotation Zrotation
							JOINT RightHand
							{
								OFFSET -26.026505 0.000000 0.000000
								CHANNELS 3 Xrotation Yrotation Zrotation
								JOINT RightHandThumb1
								{
									OFFSET -12.240601 -7.148026 9.207092
									CHANNELS 3 Xrotation Yrotation Zrotation
									JOINT RightHandThumb2
									{
										OFFSET -4.138618 -2.389435 2.389433
										CHANNELS 3 Xrotation Yrotation Zrotation
										JOINT RightHandThumb3
										{
											OFFSET -2.726974 -1.574417 1.574421
											CHANNELS 3 Xrotation Yrotation Zrotation
											JOINT RightHandThumb4
											{
												OFFSET -3.941010 -2.275345 2.275343
												CHANNELS 3 Xrotation Yrotation Zrotation
												End Site
												{
													OFFSET 0.005814 5.087799 0.009927
												}
											}
										}
									}
								}
								JOINT RightHandIndex1
								{
									OFFSET -24.424698 -1.985657 5.953444
									CHANNELS 3 Xrotation Yrotation Zrotation
									JOINT RightHandIndex2
									{
										OFFSET -6.426697 0.000000 0.000000
										CHANNELS 3 Xrotation Yrotation Zrotation
										JOINT RightHandIndex3
										{
											OFFSET -5.337898 0.000000 0.000000
											CHANNELS 3 Xrotation Yrotation Zrotation
											JOINT RightHandIndex4
											{
												OFFSET -4.409401 0.000000 0.000000
												CHANNELS 3 Xrotation Yrotation Zrotation
												End Site
												{
													OFFSET 0.000000 4.409363 0.014408
												}
											}
										}
									}
								}
								JOINT RightHandMiddle1
								{
									OFFSET -23.810097 0.000000 0.000000
									CHANNELS 3 Xrotation Yrotation Zrotation
									JOINT RightHandMiddle2
									{
										OFFSET -7.176498 0.000000 0.000000
										CHANNELS 3 Xrotation Yrotation Zrotation
										JOINT RightHandMiddle3
										{
											OFFSET -6.774902 0.000000 0.000000
											CHANNELS 3 Xrotation Yrotation Zrotation
											JOINT RightHandMiddle4
											{
												OFFSET -5.403328 0.000000 0.000000
												CHANNELS 3 Xrotation Yrotation Zrotation
												End Site
												{
													OFFSET 0.027702 5.403244 0.017457
												}
											}
										}
									}
								}
								JOINT RightHandRing1
								{
									OFFSET -22.908302 -0.839325 -6.020576
									CHANNELS 3 Xrotation Yrotation Zrotation
									JOINT RightHandRing2
									{
										OFFSET -6.337502 0.000000 0.000000
										CHANNELS 3 Xrotation Yrotation Zrotation
										JOINT RightHandRing3
										{
											OFFSET -5.779297 0.000000 0.000000
											CHANNELS 3 Xrotation Yrotation Zrotation
											JOINT RightHandRing4
											{
												OFFSET -4.965698 0.000000 0.000000
												CHANNELS 3 Xrotation Yrotation Zrotation
												End Site
												{
													OFFSET 0.000000 4.965668 0.016226
												}
											}
										}
									}
								}
								JOINT RightHandPinky1
								{
									OFFSET -20.037003 -1.530334 -10.950259
									CHANNELS 3 Xrotation Yrotation Zrotation
									JOINT RightHandPinky2
									{
										OFFSET -5.254700 0.000000 0.000000
										CHANNELS 3 Xrotation Yrotation Zrotation
										JOINT RightHandPinky3
										{
											OFFSET -4.810204 0.000000 0.000000
											CHANNELS 3 Xrotation Yrotation Zrotation
											JOINT RightHandPinky4
											{
												OFFSET -3.647202 0.000000 0.000000
												CHANNELS 3 Xrotation Yrotation Zrotation
												End Site
												{
													OFFSET 0.000000 3.647186 0.011917
												}
											}
										}
									}
								}
							}
						}
					}
				}
			}
		}
	}
	JOINT LeftUpLeg
	{
		OFFSET 15.427100 -6.655098 0.678600
		CHANNELS 3 Xrotation Yrotation Zrotation
		JOINT LeftLeg
		{
			OFFSET 4.081073 -39.591068 13.024000
			CHANNELS 3 Xrotation Yrotation Zrotation
			JOINT LeftFoot
			{
				OFFSET -4.081074 -37.707932 -15.979700
				CHANNELS 3 Xrotation Yrotation Zrotation
				JOINT LeftToeBase
				{
					OFFSET 5.346399 -15.068900 20.645000
					CHANNELS 3 Xrotation Yrotation Zrotation
					JOINT LeftToe_End
					{
						OFFSET 2.754700 0.931300 11.300900
						CHANNELS 3 Xrotation Yrotation Zrotation
						End Site
						{
							OFFSET 0.000000 11.669021 0.000000
						}
					}
				}
			}
		}
	}
	JOINT RightUpLeg
	{
		OFFSET -15.569500 -6.655098 0.678600
		CHANNELS 3 Xrotation Yrotation Zrotation
		JOINT RightLeg
		{
			OFFSET -4.081825 -39.591045 13.023800
			CHANNELS 3 Xrotation Yrotation Zrotation
			JOINT RightFoot
			{
				OFFSET 4.081824 -37.707954 -15.979600
				CHANNELS 3 Xrotation Yrotation Zrotation
				JOINT RightToeBase
				{
					OFFSET -5.346400 -15.068900 20.645000
					CHANNELS 3 Xrotation Yrotation Zrotation
					JOINT RightToe_End
					{
						OFFSET -2.754700 0.931300 11.300900
						CHANNELS 3 Xrotation Yrotation Zrotation
						End Site
						{
							OFFSET 0.000000 11.669021 0.000000
						}
					}
				}
			}
		}
	}
}
MOTION
Frames: 5
Frame Time: 0.033333
-80.330948 82.843422 287.575897 -20.488590 12.479103 1.085022 0.136856 -2.239631 5.050082 0.399204 -5.871363 4.695834 0.447733 -5.862481 4.704341 2.202674 -1.919692 0.025684 -5.905184 -7.724929 -6.344235 -0.000000 0.000000 0.000001 0.376548 4.291894 -6.991885 -13.310726 -1.151410 -24.443804 -0.000048 -72.023962 -0.000044 -2.807536 -1.649971 20.312977 -1.540023 3.690169 6.142350 3.946755 7.971397 0.752852 -0.575604 1.586260 2.542384 -0.000000 0.000000 0.000003 0.147988 1.422702 -11.876391 0.147981 1.422716 -11.876389 0.147991 1.422711 -11.876426 -0.000000 0.000001 -0.000001 0.166633 1.508610 -12.605285 0.235705 1.789612 -15.005171 0.249258 1.839418 -15.433236 -0.000001 0.000000 0.000001 0.279145 1.944320 -16.338128 0.392614 2.296008 -19.404561 0.415957 2.361249 -19.979669 0.000002 0.000001 0.000000 2.213844 6.501283 -23.397554 0.592671 -1.273898 -24.244588 0.586507 2.785492 -23.776175 0.000002 0.000000 0.000001 0.187026 -7.548734 11.154834 11.512240 -34.858786 61.462229 -0.000005 21.827372 0.000033 -33.259780 -2.569681 -24.604278 -1.849247 -3.581788 -6.586103 4.645029 -8.656777 -0.231321 -1.269839 0.126084 -2.098684 0.000001 0.000000 0.000000 0.145987 -1.420174 11.737717 0.145994 -1.420174 11.737730 0.145982 -1.420170 11.737702 -0.000001 -0.000000 -0.000001 0.108984 -1.228734 10.136863 0.153526 -1.455989 12.038244 0.162717 -1.498432 12.394804 0.000000 0.000000 -0.000000 0.125672 -1.318648 10.887698 0.177011 -1.562029 12.930045 0.187609 -1.607454 13.313016 -0.000001 0.000001 0.000001 0.211541 -1.705380 14.140934 0.211530 -1.705375 14.140984 0.211543 -1.705379 14.140957 0.000001 -0.000001 0.000001 21.934312 5.856356 4.707332 50.841019 -6.161774 -0.243499 -6.144712 -23.996594 23.703123 -40.845914 -0.480137 2.116179 -0.000000 0.000000 -0.000000 -45.743693 -12.951144 -5.016539 33.659493 -11.380331 -2.068177 -4.085979 -15.727796 3.483011 0.000006 0.000003 0.000000 0.000001 0.000003 -0.000000 
-81.497314 82.314491 293.831726 -18.854503 18.314964 2.494030 -0.415149 -1.909071 4.278870 -0.377667 -5.067939 3.454655 -0.350246 -5.047377 3.487518 0.930402 -2.930318 -0.501268 -8.556358 -13.676554 -5.733826 0.000000 0.000000 -0.000000 0.400726 3.766253 -6.863515 -11.746105 0.763368 -21.760675 0.000024 -77.773622 0.000033 4.343728 -4.063759 23.429490 -1.540024 3.690174 6.142344 3.946754 7.971393 0.752853 -0.575603 1.586260 2.542386 -0.000001 -0.000000 0.000000 0.147987 1.422702 -11.876389 0.147981 1.422715 -11.876389 0.147993 1.422710 -11.876426 0.000000 0.000000 -0.000000 0.166629 1.508612 -12.605284 0.235702 1.789612 -15.005181 0.249256 1.839418 -15.433236 -0.000000 0.000000 0.000001 0.279145 1.944321 -16.338123 0.392614 2.296010 -19.404557 0.415961 2.361245 -19.979671 -0.000002 0.000002 0.000000 2.213843 6.501286 -23.397554 0.592677 -1.273898 -24.244591 0.586507 2.785492 -23.776175 -0.000000 0.000000 0.000001 0.166203 -7.709790 11.228214 8.839051 -30.305225 57.146075 -0.000002 29.880032 0.000000 -32.904511 -6.733951 -23.055027 -1.849246 -3.581789 -6.586103 4.645031 -8.656776 -0.231323 -1.269839 0.126083 -2.098688 0.000002 0.000000 0.000001 0.145987 -1.420175 11.737714 0.145989 -1.420177 11.737730 0.145980 -1.420172 11.737701 0.000001 -0.000000 0.000001 0.108986 -1.228734 10.136861 0.153529 -1.455988 12.038244 0.162714 -1.498431 12.394805 0.000002 0.000001 0.000001 0.125677 -1.318649 10.887695 0.177006 -1.562028 12.930042 0.187605 -1.607453 13.313017 -0.000004 0.000000 -0.000000 0.211544 -1.705382 14.140935 0.211535 -1.705376 14.140985 0.211544 -1.705381 14.140962 0.000001 -0.000001 0.000000 18.912247 4.994420 10.091128 52.987511 -7.669742 -0.762935 1.733502 -27.040133 24.417598 -48.898093 -1.930702 4.965646 0.000000 -0.000002 -0.000000 -38.688951 -11.936450 -8.973987 30.320941 -10.163385 -1.869971 -6.129525 -18.263274 5.698925 -0.000001 0.000003 0.000002 0.000001 -0.000002 -0.000001 
-82.419106 80.428886 300.101166 -16.397003 24.423935 3.529642 -0.944213 -1.595453 3.536036 -1.209658 -4.468443 2.107489 -1.198980 -4.449079 2.151916 0.070559 -3.899011 -0.893129 -11.052296 -19.101082 -5.619565 -0.000001 0.000000 -0.000000 0.416406 3.496758 -6.848395 -11.925913 3.285657 -18.560605 -0.000018 -80.646646 -0.000005 4.133353 -5.326139 23.808574 -1.540022 3.690172 6.142344 3.946755 7.971392 0.752851 -0.575603 1.586263 2.542384 0.000000 0.000002 -0.000005 0.147989 1.422704 -11.876393 0.147980 1.422715 -11.876388 0.147989 1.422711 -11.876424 -0.000000 0.000000 -0.000001 0.166632 1.508613 -12.605280 0.235704 1.789611 -15.005179 0.249255 1.839419 -15.433239 -0.000000 -0.000001 -0.000002 0.279147 1.944319 -16.338127 0.392612 2.296011 -19.404561 0.415962 2.361244 -19.979669 0.000001 -0.000001 -0.000001 2.213843 6.501286 -23.397554 0.592675 -1.273895 -24.244593 0.586506 2.785493 -23.776174 -0.000000 0.000002 -0.000000 0.178346 -7.661271 10.822649 7.024322 -27.526899 51.880341 -0.000010 38.725841 0.000024 -34.487182 -12.578236 -26.559032 -1.849242 -3.581784 -6.586106 4.645028 -8.656783 -0.231320 -1.269838 0.126086 -2.098683 0.000001 -0.000000 -0.000000 0.145989 -1.420172 11.737713 0.145987 -1.420176 11.737728 0.145984 -1.420168 11.737706 0.000002 0.000000 -0.000000 0.108990 -1.228732 10.136863 0.153532 -1.455991 12.038245 0.162721 -1.498431 12.394807 0.000002 0.000002 0.000002 0.125674 -1.318644 10.887697 0.177003 -1.562028 12.930046 0.187604 -1.607453 13.313015 -0.000001 -0.000000 -0.000001 0.211543 -1.705381 14.140934 0.211531 -1.705373 14.140981 0.211546 -1.705378 14.140957 -0.000000 -0.000002 -0.000001 13.385889 1.832383 14.961756 56.555517 -8.813306 -1.269099 10.587390 -26.676108 21.205960 -60.379562 -5.101096 6.367610 0.000000 -0.000001 -0.000000 -37.865961 -11.174210 -11.830364 31.042598 -10.081786 -2.375701 -1.969524 -18.287080 0.381280 -0.000007 0.000009 0.000007 -0.000002 0.000000 -0.000000 
-83.075607 76.780815 306.349365 -10.831866 27.588418 3.108899 -1.321417 -0.648652 3.698093 -2.044489 -3.065398 1.302709 -2.030714 -3.062628 1.327513 -1.427830 -4.675664 -1.369009 -14.277597 -23.333057 -6.550193 0.000000 -0.000001 0.000000 0.430527 4.495878 -8.022114 -14.193189 5.850385 -15.499159 0.000234 -80.512788 0.000247 1.656324 -5.602437 21.683583 -1.540021 3.690171 6.142347 3.946750 7.971389 0.752852 -0.575603 1.586260 2.542383 -0.000001 0.000003 -0.000002 0.147991 1.422704 -11.876389 0.147976 1.422717 -11.876388 0.147993 1.422710 -11.876426 0.000001 0.000002 -0.000001 0.166635 1.508612 -12.605286 0.235705 1.789614 -15.005178 0.249254 1.839421 -15.433238 -0.000002 -0.000002 -0.000001 0.279147 1.944320 -16.338122 0.392612 2.296010 -19.404557 0.415959 2.361242 -19.979669 0.000002 -0.000000 -0.000001 2.213847 6.501285 -23.397556 0.592673 -1.273894 -24.244593 0.586504 2.785490 -23.776175 -0.000001 -0.000003 0.000001 0.206492 -7.486563 10.134162 4.688040 -24.983061 45.048694 0.000010 46.032767 0.000003 -37.599075 -15.182112 -35.366607 -1.849251 -3.581788 -6.586106 4.645026 -8.656779 -0.231319 -1.269837 0.126080 -2.098682 -0.000000 -0.000004 0.000002 0.145986 -1.420175 11.737713 0.145991 -1.420173 11.737727 0.145981 -1.420171 11.737701 -0.000000 -0.000002 -0.000002 0.108986 -1.228737 10.136861 0.153528 -1.455990 12.038243 0.162718 -1.498423 12.394805 -0.000001 0.000001 -0.000001 0.125671 -1.318646 10.887694 0.177013 -1.562026 12.930043 0.187606 -1.607455 13.313017 0.000001 -0.000002 0.000000 0.211541 -1.705384 14.140932 0.211534 -1.705372 14.140986 0.211547 -1.705378 14.140961 0.000000 0.000000 0.000000 5.952529 -1.639130 15.759133 60.112338 -8.843188 -1.242942 19.226856 -20.573418 15.321695 -76.451004 -11.652966 0.698852 0.000000 0.000000 0.000000 -46.561615 -9.002867 -15.843997 35.022751 -9.089755 -1.895542 17.245237 -19.352651 0.665105 -0.000001 0.000011 -0.000003 0.000000 0.000000 -0.000000 
-83.817848 73.850510 310.906158 -2.566690 26.744068 1.156152 -1.358495 0.837167 4.958253 -2.538642 -1.022099 1.162280 -2.527907 -1.047546 1.161989 -3.642275 -4.950765 -2.144380 -18.898886 -25.118316 -8.402214 -0.000003 0.000000 -0.000001 0.501686 6.411344 -10.504948 -17.461517 10.638436 -14.597794 0.000116 -77.899674 0.000104 1.015033 -6.101955 20.311519 -1.540021 3.690171 6.142344 3.946749 7.971396 0.752852 -0.575606 1.586263 2.542382 0.000001 0.000001 -0.000000 0.147985 1.422702 -11.876388 0.147983 1.422716 -11.876388 0.147994 1.422709 -11.876425 -0.000001 -0.000001 -0.000001 0.166631 1.508612 -12.605286 0.235706 1.789612 -15.005176 0.249252 1.839417 -15.433238 -0.000002 0.000001 -0.000001 0.279147 1.944320 -16.338122 0.392616 2.296013 -19.404561 0.415960 2.361244 -19.979671 0.000001 -0.000000 -0.000001 2.213846 6.501279 -23.397552 0.592675 -1.273897 -24.244591 0.586502 2.785489 -23.776172 0.000000 -0.000003 -0.000002 0.260089 -6.980408 9.298793 0.005684 -21.167914 36.316140 0.000034 50.058337 -0.000043 -37.789265 -15.627186 -44.341749 -1.849243 -3.581787 -6.586107 4.645026 -8.656775 -0.231325 -1.269836 0.126081 -2.098682 0.000006 0.000000 0.000002 0.145989 -1.420176 11.737717 0.145992 -1.420174 11.737728 0.145981 -1.420171 11.737706 0.000004 -0.000003 0.000000 0.108988 -1.228734 10.136861 0.153530 -1.455989 12.038241 0.162722 -1.498435 12.394804 -0.000000 -0.000001 0.000000 0.125677 -1.318649 10.887696 0.177006 -1.562027 12.930046 0.187612 -1.607454 13.313015 -0.000004 0.000003 0.000002 0.211542 -1.705382 14.140934 0.211532 -1.705374 14.140985 0.211541 -1.705379 14.140960 -0.000001 -0.000001 -0.000001 -3.425804 -3.064209 12.185339 63.690162 -7.817804 -0.683769 24.230473 -13.017361 10.860660 -80.619284 -18.273842 4.041831 -0.000000 0.000001 -0.000000 -59.024391 -7.802245 -17.963037 42.527090 -10.323971 -1.801654 18.095277 -14.653064 0.535407 0.000002 0.000002 -0.000000 -0.000000 -0.000000 -0.000000 
